<svg width="24" height="25" viewBox="0 0 24 25" fill="none" xmlns="http://www.w3.org/2000/svg">
<path fill-rule="evenodd" clip-rule="evenodd" d="M7 1.59766C7.55229 1.59766 8 2.04537 8 2.59766V6.59766C8 7.14994 7.55229 7.59766 7 7.59766C6.44772 7.59766 6 7.14994 6 6.59766V5.59766H5C4.73478 5.59766 4.48043 5.70301 4.29289 5.89055C4.10536 6.07809 4 6.33244 4 6.59766V9.59766H20V6.59766C20 6.33244 19.8946 6.07809 19.7071 5.89055C19.5196 5.70301 19.2652 5.59766 19 5.59766H18.5C17.9477 5.59766 17.5 5.14994 17.5 4.59766C17.5 4.04537 17.9477 3.59766 18.5 3.59766H19C19.7957 3.59766 20.5587 3.91373 21.1213 4.47634C21.6839 5.03894 22 5.80201 22 6.59766V19.5977C22 20.3933 21.6839 21.1564 21.1213 21.719C20.5587 22.2816 19.7957 22.5977 19 22.5977H5C4.20435 22.5977 3.44129 22.2816 2.87868 21.719C2.31607 21.1564 2 20.3933 2 19.5977V6.59766C2 5.80201 2.31607 5.03895 2.87868 4.47634C3.44129 3.91373 4.20435 3.59766 5 3.59766H6V2.59766C6 2.04537 6.44772 1.59766 7 1.59766ZM20 11.5977H4V19.5977C4 19.8629 4.10536 20.1172 4.29289 20.3048C4.48043 20.4923 4.73478 20.5977 5 20.5977H19C19.2652 20.5977 19.5196 20.4923 19.7071 20.3048C19.8946 20.1172 20 19.8629 20 19.5977V11.5977ZM15 1.59766C15.5523 1.59766 16 2.04537 16 2.59766V6.59766C16 7.14994 15.5523 7.59766 15 7.59766C14.4477 7.59766 14 7.14994 14 6.59766V5.59766H10.5C9.94772 5.59766 9.5 5.14994 9.5 4.59766C9.5 4.04537 9.94772 3.59766 10.5 3.59766H14V2.59766C14 2.04537 14.4477 1.59766 15 1.59766Z" fill="#878EA6"/>
<path d="M4 11.5977H20V19.5977C20 19.8629 19.8946 20.1172 19.7071 20.3048C19.5196 20.4923 19.2652 20.5977 19 20.5977H5C4.73478 20.5977 4.48043 20.4923 4.29289 20.3048C4.10536 20.1172 4 19.8629 4 19.5977V11.5977Z" fill="#878EA6"/>
</svg>
