<svg width="18" height="18" viewBox="0 0 18 18" fill="none" xmlns="http://www.w3.org/2000/svg">
<path d="M16.5001 6.6465C16.5026 7.80056 16.058 8.91075 15.2596 9.744C13.4288 11.6423 11.6528 13.6215 9.75456 15.45C9.31881 15.8625 8.62806 15.8475 8.21181 15.4163L2.74056 9.74475C1.08681 8.03025 1.08681 5.26275 2.74056 3.549C3.13141 3.13875 3.60151 2.81214 4.12235 2.58898C4.64319 2.36582 5.20392 2.25075 5.77056 2.25075C6.33719 2.25075 6.89792 2.36582 7.41876 2.58898C7.9396 2.81214 8.4097 3.13875 8.80056 3.549L9.00006 3.7545L9.19881 3.549C9.59045 3.13972 10.0607 2.81371 10.5813 2.5905C11.102 2.36729 11.6623 2.25148 12.2288 2.25C13.3688 2.25 14.4586 2.718 15.2588 3.549C16.0576 4.38213 16.5024 5.49233 16.5001 6.6465Z" fill="white"/>
</svg>
