<svg width="188" height="52" viewBox="0 0 188 52" fill="none" xmlns="http://www.w3.org/2000/svg">
<path d="M160 2.53663V0.700324H168.127V2.53663H165.205V9.44783H162.955V2.53663H160Z" fill="white"/>
<path d="M175.27 0.700324H177.655L174.75 10.149C174.448 11.2285 174.033 11.9686 173.507 12.3692C172.981 12.781 172.203 12.9869 171.173 12.9869C170.781 12.9869 170.378 12.9646 169.964 12.9201V11.2174C170.457 11.2396 170.809 11.2508 171.022 11.2508C171.503 11.2508 171.867 11.1562 172.113 10.967C172.36 10.7889 172.561 10.4272 172.718 9.88187L172.835 9.44783H171.509L168.436 0.700324H170.854L173.306 8.52968L175.27 0.700324Z" fill="white"/>
<path d="M178.613 12.7866V0.700324H180.712V2.30292C181.339 1.10097 182.33 0.5 183.684 0.5C184.793 0.5 185.694 0.911778 186.388 1.73533C187.093 2.54776 187.446 3.66068 187.446 5.07408C187.446 6.48748 187.093 7.60596 186.388 8.42952C185.694 9.24194 184.798 9.64816 183.701 9.64816C182.447 9.64816 181.501 9.11952 180.863 8.06225V12.7866H178.613ZM181.367 3.02075C180.964 3.54382 180.763 4.22826 180.763 5.07408C180.763 5.91989 180.964 6.60434 181.367 7.12741C181.77 7.65048 182.313 7.91201 182.996 7.91201C183.679 7.91201 184.222 7.65048 184.625 7.12741C185.028 6.60434 185.229 5.91989 185.229 5.07408C185.229 4.22826 185.028 3.54382 184.625 3.02075C184.222 2.49768 183.679 2.23615 182.996 2.23615C182.313 2.23615 181.77 2.49768 181.367 3.02075Z" fill="white"/>
<path d="M9.43571 41.2924C7.01064 41.2924 4.98975 40.6828 3.37304 39.4635C1.77103 38.2443 0.646684 36.5997 0 34.5299L5.24696 33.3177C5.40863 34.1825 5.87894 34.9268 6.6579 35.5506C7.43686 36.1744 8.29666 36.4863 9.23729 36.4863C9.85458 36.4863 10.5086 36.3304 11.1994 36.0185C11.8902 35.6924 12.4046 35.1749 12.7426 34.4661C12.9484 34.0124 13.066 33.4737 13.0953 32.8499C13.1394 32.2119 13.1615 31.4747 13.1615 30.6382V10.0316H18.5407V30.6382C18.5407 31.5881 18.5334 32.4246 18.5187 33.1476C18.5187 33.8565 18.4452 34.5299 18.2982 35.1678C18.1659 35.7916 17.894 36.4367 17.4825 37.103C16.6154 38.5491 15.4837 39.6124 14.0874 40.2929C12.6912 40.9592 11.1406 41.2924 9.43571 41.2924Z" fill="white"/>
<path d="M35.1624 41.2924C32.752 41.2924 30.6356 40.7891 28.8131 39.7825C26.9907 38.7759 25.565 37.3795 24.5362 35.5932C23.5221 33.8068 23.015 31.7511 23.015 29.4261C23.015 26.9167 23.5147 24.7405 24.5142 22.8975C25.5136 21.0403 26.9025 19.6013 28.6809 18.5805C30.4592 17.5597 32.5169 17.0494 34.8538 17.0494C37.3229 17.0494 39.4173 17.6094 41.1369 18.7294C42.8712 19.8352 44.1572 21.4018 44.9949 23.4291C45.8327 25.4565 46.1487 27.8453 45.9429 30.5957H40.6739V28.7243C40.6592 26.2291 40.2036 24.4073 39.3071 23.259C38.4105 22.1106 36.9996 21.5365 35.0742 21.5365C32.899 21.5365 31.2823 22.1886 30.2241 23.4929C29.1659 24.783 28.6368 26.6757 28.6368 29.1709C28.6368 31.4959 29.1659 33.2965 30.2241 34.5724C31.2823 35.8484 32.8255 36.4863 34.8538 36.4863C36.1618 36.4863 37.2862 36.2099 38.2268 35.657C39.1821 35.0899 39.917 34.2747 40.4314 33.2114L45.6784 34.7425C44.7671 36.8124 43.3562 38.4215 41.4455 39.5699C39.5496 40.7182 37.4552 41.2924 35.1624 41.2924ZM26.9613 30.5957V26.7253H43.3415V30.5957H26.9613Z" fill="white"/>
<path d="M60.8488 41.2924C58.4384 41.2924 56.322 40.7891 54.4995 39.7825C52.6771 38.7759 51.2514 37.3795 50.2226 35.5932C49.2085 33.8068 48.7014 31.7511 48.7014 29.4261C48.7014 26.9167 49.2011 24.7405 50.2006 22.8975C51.2 21.0403 52.5889 19.6013 54.3673 18.5805C56.1456 17.5597 58.2033 17.0494 60.5401 17.0494C63.0093 17.0494 65.1037 17.6094 66.8233 18.7294C68.5576 19.8352 69.8436 21.4018 70.6813 23.4291C71.5191 25.4565 71.8351 27.8453 71.6293 30.5957H66.3603V28.7243C66.3456 26.2291 65.89 24.4073 64.9934 23.259C64.0969 22.1106 62.686 21.5365 60.7606 21.5365C58.5854 21.5365 56.9687 22.1886 55.9105 23.4929C54.8523 24.783 54.3232 26.6757 54.3232 29.1709C54.3232 31.4959 54.8523 33.2965 55.9105 34.5724C56.9687 35.8484 58.5119 36.4863 60.5401 36.4863C61.8482 36.4863 62.9726 36.2099 63.9132 35.657C64.8685 35.0899 65.6034 34.2747 66.1178 33.2114L71.3647 34.7425C70.4535 36.8124 69.0426 38.4215 67.1319 39.5699C65.236 40.7182 63.1416 41.2924 60.8488 41.2924ZM52.6477 30.5957V26.7253H69.0279V30.5957H52.6477Z" fill="white"/>
<path d="M86.5066 41.2924C84.1844 41.2924 82.237 40.7608 80.6644 39.6975C79.0918 38.6342 77.9086 37.1881 77.115 35.3592C76.3213 33.5162 75.9245 31.4534 75.9245 29.1709C75.9245 26.86 76.3213 24.7901 77.115 22.9613C77.9086 21.1324 79.0697 19.6934 80.5982 18.6443C82.1415 17.581 84.0448 17.0494 86.3082 17.0494C88.5569 17.0494 90.5043 17.581 92.1504 18.6443C93.8112 19.6934 95.0972 21.1324 96.0084 22.9613C96.9197 24.7759 97.3753 26.8458 97.3753 29.1709C97.3753 31.4676 96.927 33.5304 96.0305 35.3592C95.1339 37.1881 93.87 38.6342 92.2385 39.6975C90.6071 40.7608 88.6965 41.2924 86.5066 41.2924ZM75.0206 50.862V17.6873H79.7164V33.8068H80.3778V50.862H75.0206ZM85.6909 36.699C87.0724 36.699 88.2115 36.3658 89.108 35.6995C90.0046 35.0332 90.6659 34.1329 91.0922 32.9987C91.5331 31.8504 91.7535 30.5744 91.7535 29.1709C91.7535 27.7815 91.5331 26.5197 91.0922 25.3856C90.6512 24.2372 89.9678 23.3299 89.0419 22.6635C88.1159 21.983 86.9402 21.6428 85.5145 21.6428C84.1624 21.6428 83.0601 21.9618 82.2076 22.5997C81.3552 23.2235 80.7232 24.1025 80.3116 25.2367C79.9148 26.3567 79.7164 27.6681 79.7164 29.1709C79.7164 30.6595 79.9148 31.9709 80.3116 33.1051C80.7232 34.2392 81.3625 35.1253 82.2297 35.7633C83.1115 36.3871 84.2652 36.699 85.6909 36.699Z" fill="white"/>
<path d="M112.839 41.2924C110.517 41.2924 108.569 40.7608 106.997 39.6975C105.424 38.6342 104.241 37.1881 103.447 35.3592C102.654 33.5162 102.257 31.4534 102.257 29.1709C102.257 26.86 102.654 24.7901 103.447 22.9613C104.241 21.1324 105.402 19.6934 106.931 18.6443C108.474 17.581 110.377 17.0494 112.64 17.0494C114.889 17.0494 116.837 17.581 118.483 18.6443C120.143 19.6934 121.429 21.1324 122.341 22.9613C123.252 24.7759 123.708 26.8458 123.708 29.1709C123.708 31.4676 123.259 33.5304 122.363 35.3592C121.466 37.1881 120.202 38.6342 118.571 39.6975C116.939 40.7608 115.029 41.2924 112.839 41.2924ZM101.353 50.862V17.6873H106.049V33.8068H106.71V50.862H101.353ZM112.023 36.699C113.405 36.699 114.544 36.3658 115.44 35.6995C116.337 35.0332 116.998 34.1329 117.424 32.9987C117.865 31.8504 118.086 30.5744 118.086 29.1709C118.086 27.7815 117.865 26.5197 117.424 25.3856C116.984 24.2372 116.3 23.3299 115.374 22.6635C114.448 21.983 113.272 21.6428 111.847 21.6428C110.495 21.6428 109.392 21.9618 108.54 22.5997C107.687 23.2235 107.055 24.1025 106.644 25.2367C106.247 26.3567 106.049 27.6681 106.049 29.1709C106.049 30.6595 106.247 31.9709 106.644 33.1051C107.055 34.2392 107.695 35.1253 108.562 35.7633C109.444 36.3871 110.598 36.699 112.023 36.699Z" fill="white"/>
<path d="M128.17 14.1997V9.5H133.483V14.1997H128.17ZM128.17 40.6544V17.6873H133.483V40.6544H128.17Z" fill="white"/>
<path d="M155.718 40.6544V29.5962C155.718 28.8732 155.666 28.0722 155.563 27.1932C155.461 26.3142 155.218 25.4706 154.836 24.6625C154.468 23.8403 153.91 23.1668 153.16 22.6423C152.425 22.1177 151.426 21.8554 150.162 21.8554C149.486 21.8554 148.817 21.9618 148.156 22.1744C147.495 22.3871 146.892 22.7557 146.348 23.2803C145.819 23.7906 145.393 24.4995 145.069 25.4068C144.746 26.3 144.584 27.4484 144.584 28.8519L141.432 27.5547C141.432 25.5982 141.821 23.8261 142.6 22.2382C143.394 20.6504 144.555 19.3886 146.084 18.4529C147.612 17.503 149.493 17.0281 151.727 17.0281C153.491 17.0281 154.946 17.3116 156.092 17.8787C157.239 18.4458 158.15 19.1689 158.826 20.0478C159.502 20.9268 160.002 21.8625 160.325 22.8549C160.649 23.8473 160.854 24.7901 160.943 25.6833C161.046 26.5623 161.097 27.2782 161.097 27.8311V40.6544H155.718ZM139.205 40.6544V17.6873H143.945V24.8114H144.584V40.6544H139.205Z" fill="white"/>
<path d="M176.021 51.5C174.698 51.5 173.427 51.3015 172.207 50.9046C171.002 50.5076 169.914 49.9334 168.944 49.182C167.974 48.4448 167.181 47.5516 166.563 46.5025L171.458 44.1633C171.913 44.9997 172.553 45.6165 173.376 46.0134C174.213 46.4246 175.103 46.6301 176.043 46.6301C177.145 46.6301 178.13 46.4387 178.997 46.056C179.864 45.6873 180.533 45.1344 181.003 44.3972C181.488 43.6742 181.716 42.7668 181.687 41.6752V35.1466H182.348V17.6873H187V41.7603C187 42.3415 186.971 42.8944 186.912 43.419C186.868 43.9577 186.787 44.4823 186.669 44.9927C186.317 46.4813 185.64 47.7005 184.641 48.6504C183.642 49.6144 182.4 50.3304 180.915 50.7982C179.446 51.2661 177.814 51.5 176.021 51.5ZM175.558 41.2924C173.368 41.2924 171.458 40.7608 169.826 39.6975C168.195 38.6342 166.931 37.1881 166.034 35.3592C165.138 33.5304 164.689 31.4676 164.689 29.1709C164.689 26.8458 165.138 24.7759 166.034 22.9613C166.945 21.1324 168.231 19.6934 169.892 18.6443C171.553 17.581 173.508 17.0494 175.757 17.0494C178.02 17.0494 179.916 17.581 181.444 18.6443C182.988 19.6934 184.156 21.1324 184.95 22.9613C185.743 24.7901 186.14 26.86 186.14 29.1709C186.14 31.4534 185.743 33.5162 184.95 35.3592C184.156 37.1881 182.973 38.6342 181.4 39.6975C179.828 40.7608 177.88 41.2924 175.558 41.2924ZM176.374 36.699C177.799 36.699 178.946 36.3871 179.813 35.7633C180.695 35.1253 181.334 34.2392 181.731 33.1051C182.143 31.9709 182.348 30.6595 182.348 29.1709C182.348 27.6681 182.143 26.3567 181.731 25.2367C181.334 24.1025 180.71 23.2235 179.857 22.5997C179.005 21.9618 177.902 21.6428 176.55 21.6428C175.125 21.6428 173.949 21.983 173.023 22.6635C172.097 23.3299 171.413 24.2372 170.973 25.3856C170.532 26.5197 170.311 27.7815 170.311 29.1709C170.311 30.5744 170.524 31.8504 170.95 32.9987C171.391 34.1329 172.06 35.0332 172.957 35.6995C173.853 36.3658 174.992 36.699 176.374 36.699Z" fill="white"/>
</svg>
