<svg width="32" height="32" viewBox="0 0 32 32" fill="none" xmlns="http://www.w3.org/2000/svg">
<circle cx="16" cy="16" r="16" fill="#464E5F"/>
<g filter="url(#filter0_i_108_13039)">
<path d="M17.0086 16.053C17.0086 20.4412 14.3951 23.9986 11.1711 23.9986C7.94706 23.9986 5.3335 20.4412 5.3335 16.053C5.3335 11.6648 7.94706 8.10742 11.1711 8.10742C14.3951 8.10742 17.0086 11.6648 17.0086 16.053Z" fill="#F7F6F8"/>
</g>
<path fill-rule="evenodd" clip-rule="evenodd" d="M15.154 21.5649C16.1854 20.161 16.8288 18.2128 16.8288 16.053C16.8288 13.8932 16.1854 11.945 15.154 10.5411C14.1224 9.13705 12.7122 8.2872 11.1711 8.2872C9.62994 8.2872 8.21968 9.13705 7.18816 10.5411C6.1567 11.945 5.51327 13.8932 5.51327 16.053C5.51327 18.2128 6.1567 20.161 7.18816 21.5649C8.21968 22.9689 9.62994 23.8188 11.1711 23.8188C12.7122 23.8188 14.1224 22.9689 15.154 21.5649ZM11.1711 23.9986C14.3951 23.9986 17.0086 20.4412 17.0086 16.053C17.0086 11.6648 14.3951 8.10742 11.1711 8.10742C7.94706 8.10742 5.3335 11.6648 5.3335 16.053C5.3335 20.4412 7.94706 23.9986 11.1711 23.9986Z" fill="black"/>
<g filter="url(#filter1_i_108_13039)">
<path d="M26.1512 16.053C26.1512 20.4412 23.5376 23.9986 20.3136 23.9986C17.0896 23.9986 14.4761 20.4412 14.4761 16.053C14.4761 11.6648 17.0896 8.10742 20.3136 8.10742C23.5376 8.10742 26.1512 11.6648 26.1512 16.053Z" fill="#F7F6F8"/>
</g>
<path fill-rule="evenodd" clip-rule="evenodd" d="M24.2965 21.5649C25.328 20.161 25.9714 18.2128 25.9714 16.053C25.9714 13.8932 25.328 11.945 24.2965 10.5411C23.265 9.13705 21.8547 8.2872 20.3136 8.2872C18.7725 8.2872 17.3623 9.13705 16.3307 10.5411C15.2993 11.945 14.6558 13.8932 14.6558 16.053C14.6558 18.2128 15.2993 20.161 16.3307 21.5649C17.3623 22.9689 18.7725 23.8188 20.3136 23.8188C21.8547 23.8188 23.265 22.9689 24.2965 21.5649ZM20.3136 23.9986C23.5376 23.9986 26.1512 20.4412 26.1512 16.053C26.1512 11.6648 23.5376 8.10742 20.3136 8.10742C17.0896 8.10742 14.4761 11.6648 14.4761 16.053C14.4761 20.4412 17.0896 23.9986 20.3136 23.9986Z" fill="black"/>
<ellipse cx="11.9758" cy="7.90814" rx="2.27602" ry="3.34969" transform="rotate(-57.5745 11.9758 7.90814)" fill="black"/>
<ellipse cx="2.27602" cy="3.34969" rx="2.27602" ry="3.34969" transform="matrix(-0.536202 -0.84409 -0.84409 0.536202 23.8069 8.0332)" fill="black"/>
<ellipse cx="14.0902" cy="16.0523" rx="2.91878" ry="5.3511" fill="black"/>
<ellipse cx="23.4951" cy="16.0523" rx="2.91878" ry="5.3511" fill="black"/>
<path d="M13.9447 25.6182C13.8454 25.6182 13.7636 25.6991 13.7778 25.7974C13.8304 26.1615 14.0423 26.5032 14.3823 26.7648C14.7776 27.0689 15.3138 27.2397 15.8729 27.2397C16.432 27.2397 16.9681 27.0689 17.3635 26.7648C17.7035 26.5032 17.9154 26.1615 17.968 25.7974C17.9822 25.6991 17.9004 25.6182 17.8011 25.6182L15.8729 25.6182H13.9447Z" fill="#E5473E"/>
<path fill-rule="evenodd" clip-rule="evenodd" d="M14.2724 26.9072C13.9012 26.6217 13.6599 26.2405 13.5995 25.823C13.5672 25.5988 13.754 25.4383 13.9443 25.4383L17.8008 25.4383C17.9912 25.4383 18.178 25.5988 18.1456 25.823C18.0853 26.2405 17.8439 26.6217 17.4728 26.9072C17.0422 27.2384 16.4663 27.4194 15.8726 27.4194C15.2789 27.4194 14.7029 27.2384 14.2724 26.9072ZM13.7775 25.7973C13.7633 25.699 13.8451 25.6181 13.9443 25.6181L17.8008 25.6181C17.9001 25.6181 17.9819 25.699 17.9677 25.7973C17.9151 26.1614 17.7032 26.5032 17.3632 26.7647C16.9678 27.0688 16.4317 27.2397 15.8726 27.2397C15.3135 27.2397 14.7773 27.0688 14.382 26.7647C14.042 26.5032 13.8301 26.1614 13.7775 25.7973Z" fill="black"/>
<defs>
<filter id="filter0_i_108_13039" x="5.3335" y="8.10742" width="11.6752" height="15.8911" filterUnits="userSpaceOnUse" color-interpolation-filters="sRGB">
<feFlood flood-opacity="0" result="BackgroundImageFix"/>
<feBlend mode="normal" in="SourceGraphic" in2="BackgroundImageFix" result="shape"/>
<feColorMatrix in="SourceAlpha" type="matrix" values="0 0 0 0 0 0 0 0 0 0 0 0 0 0 0 0 0 0 127 0" result="hardAlpha"/>
<feOffset dx="2"/>
<feComposite in2="hardAlpha" operator="arithmetic" k2="-1" k3="1"/>
<feColorMatrix type="matrix" values="0 0 0 0 0.741176 0 0 0 0 0.807843 0 0 0 0 0.854902 0 0 0 1 0"/>
<feBlend mode="normal" in2="shape" result="effect1_innerShadow_108_13039"/>
</filter>
<filter id="filter1_i_108_13039" x="14.4761" y="8.10742" width="11.6752" height="15.8911" filterUnits="userSpaceOnUse" color-interpolation-filters="sRGB">
<feFlood flood-opacity="0" result="BackgroundImageFix"/>
<feBlend mode="normal" in="SourceGraphic" in2="BackgroundImageFix" result="shape"/>
<feColorMatrix in="SourceAlpha" type="matrix" values="0 0 0 0 0 0 0 0 0 0 0 0 0 0 0 0 0 0 127 0" result="hardAlpha"/>
<feOffset dx="2"/>
<feComposite in2="hardAlpha" operator="arithmetic" k2="-1" k3="1"/>
<feColorMatrix type="matrix" values="0 0 0 0 0.741176 0 0 0 0 0.807843 0 0 0 0 0.854902 0 0 0 1 0"/>
<feBlend mode="normal" in2="shape" result="effect1_innerShadow_108_13039"/>
</filter>
</defs>
</svg>
