<svg width="100" height="22" viewBox="0 0 100 22" fill="none" xmlns="http://www.w3.org/2000/svg">
<path d="M5.14193 4.8011H2.69826V17.6001C2.69826 17.6001 2.87127 19.6505 0.62223 19.6505L0.578979 21.9384C0.578979 21.9384 1.76837 22.0031 2.46038 21.7873C4.25529 21.1829 5.1203 19.521 5.1203 17.2979L5.14193 4.8011ZM5.63931 1.75783C5.63931 0.808155 4.88242 0.0527344 3.93091 0.0527344C2.97939 0.0527344 2.22251 0.808155 2.22251 1.75783C2.22251 2.68592 2.97939 3.46292 3.93091 3.46292C4.88242 3.46292 5.63931 2.68592 5.63931 1.75783Z" fill="#464E5F"/>
<path d="M14.6816 10.7581C14.6816 14.082 11.5891 14.0604 11.5891 14.0604C8.92923 14.1899 9.21036 10.607 9.21036 10.607V4.75793H6.74507V11.4704C6.74507 11.4704 6.52882 16.7583 11.308 16.3698C12.9083 16.2403 14.2491 15.3122 14.5302 13.2834H15.1357L14.4869 16.3698H17.1252V4.75793H14.6816V10.7581Z" fill="#464E5F"/>
<path d="M21.153 4.75793H18.7309V16.3914H21.153V4.75793ZM18.2552 1.75783C18.2552 2.68592 19.012 3.41975 19.9419 3.41975C20.8502 3.41975 21.6071 2.68592 21.6071 1.75783C21.6071 0.829739 20.8502 0.0743176 19.9419 0.0743176C19.012 0.0743176 18.2552 0.829739 18.2552 1.75783Z" fill="#464E5F"/>
<path d="M30.7634 11.8805C30.7634 11.8805 30.612 14.1899 27.9737 14.1899C27.9737 14.1899 24.8164 14.4489 24.8164 10.5855C24.8164 6.70044 27.9737 6.95944 27.9737 6.95944C30.7201 6.95944 30.7634 9.29046 30.7634 9.29046L32.9908 8.47028C32.9908 8.47028 32.4934 4.75793 28.0386 4.75793C28.0386 4.75793 22.3728 4.45576 22.3728 10.5855C22.3728 16.5857 28.0386 16.3914 28.0386 16.3914C32.2988 16.3914 32.9692 12.5711 32.9692 12.5711L30.7634 11.8805Z" fill="#464E5F"/>
<path d="M38.8401 6.98103C41.5865 6.74361 42.0407 8.21128 42.0407 8.62137L36.1153 9.39837C35.9639 7.17528 38.8401 6.98103 38.8401 6.98103ZM44.3546 9.39837C44.3546 9.22571 44.2897 4.75793 39.3159 4.75793C39.3159 4.75793 33.65 4.45576 33.65 10.5855C33.65 16.6504 39.3159 16.3914 39.3159 16.3914C43.7274 16.3914 44.2464 12.5927 44.2464 12.5927L42.0407 11.8805C42.0407 11.8805 41.8244 14.1899 39.2294 14.1899C39.2294 14.1899 36.0937 14.3194 36.0937 11.0387L44.3546 9.98113V9.39837Z" fill="#464E5F"/>
<path d="M51.0728 4.8011V6.67886H52.1324V12.0963C52.1324 12.0963 51.8945 15.2691 54.7491 16.2187C55.4195 16.4562 56.5872 16.3914 56.5872 16.3914L56.5224 14.1467C54.4896 14.1467 54.5112 12.6143 54.5112 12.6143V6.67886H56.5872V4.8011H54.5112V2.36216H53.1704C53.1704 2.36216 53.1704 4.8011 51.5269 4.8011H51.0728Z" fill="#464E5F"/>
<path d="M62.4295 6.98103C65.1759 6.74361 65.63 8.21128 65.63 8.62137L59.7047 9.39837C59.5533 7.17528 62.4295 6.98103 62.4295 6.98103ZM67.9439 9.39837C67.9439 9.22571 67.8791 4.75793 62.9052 4.75793C62.9052 4.75793 57.2394 4.45576 57.2394 10.5855C57.2394 16.6504 62.9052 16.3914 62.9052 16.3914C67.3168 16.3914 67.8358 12.5927 67.8358 12.5927L65.63 11.8805C65.63 11.8805 65.4138 14.1899 62.8187 14.1899C62.8187 14.1899 59.6831 14.3194 59.6831 11.0387L67.9439 9.98113V9.39837Z" fill="#464E5F"/>
<path d="M73.4668 14.1683C73.4668 14.1683 71.2178 14.5352 71.1529 13.3266C71.1529 13.3266 70.9583 12.0531 73.4668 11.3841L76.5376 10.5423C76.5376 11.9452 75.3266 13.7582 73.4668 14.1683ZM80.4951 16.3482L80.5383 14.1899C78.8732 14.1899 78.9813 13.1539 78.9813 13.1539V8.9667C78.9813 8.9667 79.4787 4.73635 73.9642 4.73635C69.4661 4.73635 68.6228 7.58536 68.6228 7.58536L70.742 8.40553C70.742 8.40553 71.0664 6.80836 73.9642 6.80836C75.9538 6.80836 76.5809 8.10337 76.5809 8.88037L73.1641 9.72213C73.1641 9.72213 68.6011 10.6934 68.6228 13.7151C68.6228 13.7151 68.5146 16.9094 73.1641 16.3914C75.3266 16.154 76.3863 14.4705 76.6025 13.0676L77.1431 13.0891C77.0134 16.672 80.4951 16.3482 80.4951 16.3482Z" fill="#464E5F"/>
<path d="M96.0765 4.75793C93.4165 4.47734 91.3189 5.85869 91.1026 8.03862H90.6269C90.4971 6.03135 89.2645 4.77951 87.4912 4.77951C85.8909 4.77951 84.4637 5.85869 84.1825 8.01703H83.6419L84.3123 4.77951H81.674V16.3914H84.1176V10.3912C84.2041 7.04578 87.1884 7.08894 87.1884 7.08894C89.0482 7.00261 89.5672 8.64295 89.5672 9.74371V16.3914H92.0542V9.76529C92.0109 7.88753 94.0437 6.52777 95.7737 7.13211C97.1577 7.6717 97.5037 9.20412 97.5037 10.5423V16.3914H99.9474V9.67896C99.9474 9.67896 99.969 5.14643 96.0765 4.75793Z" fill="#464E5F"/>
</svg>
