<svg width="24" height="25" viewBox="0 0 24 25" fill="none" xmlns="http://www.w3.org/2000/svg">
<path fill-rule="evenodd" clip-rule="evenodd" d="M12.5166 23.1414L12.523 23.1353L12.5414 23.1177L12.611 23.0508C12.6714 22.9924 12.7593 22.9069 12.8707 22.797C13.0934 22.5771 13.4105 22.259 13.7906 21.8638C14.5499 21.0743 15.5643 19.973 16.5808 18.729C17.5949 17.4878 18.6242 16.0886 19.4035 14.7045C20.1715 13.3404 20.75 11.8994 20.75 10.5977C20.75 8.27701 19.8281 6.05142 18.1872 4.41047C16.5462 2.76953 14.3206 1.84766 12 1.84766C9.67936 1.84766 7.45376 2.76953 5.81282 4.41047C4.17187 6.05141 3.25 8.27701 3.25 10.5977C3.25 11.8994 3.82845 13.3404 4.59646 14.7045C5.3758 16.0886 6.40507 17.4878 7.41922 18.729C8.43568 19.973 9.45013 21.0743 10.2094 21.8638C10.5895 22.259 10.9066 22.5771 11.1293 22.797C11.2407 22.9069 11.3286 22.9924 11.389 23.0508L11.4586 23.1177L11.477 23.1353L11.4838 23.1418L12 23.631L12.5166 23.1414ZM11.4838 23.1418C11.4838 23.1418 11.4841 23.142 12 22.5977L11.4838 23.1418ZM12.5166 23.1414C12.5166 23.1414 12.5159 23.142 12 22.5977L12.5166 23.1414ZM12 7.09766C11.2043 7.09766 10.4413 7.41373 9.87868 7.97634C9.31607 8.53894 9 9.30201 9 10.0977C9 10.8933 9.31607 11.6564 9.87868 12.219C10.4413 12.7816 11.2043 13.0977 12 13.0977C12.7957 13.0977 13.5587 12.7816 14.1213 12.219C14.6839 11.6564 15 10.8933 15 10.0977C15 9.30201 14.6839 8.53894 14.1213 7.97634C13.5587 7.41373 12.7957 7.09766 12 7.09766Z" fill="#878EA6"/>
</svg>
